<?xml version="1.0" encoding="UTF-8"?>
<svg version="1.1" xmlns="http://www.w3.org/2000/svg" width="1080" height="1080">
<path d="M0 0 C0.88457602 0.00262701 1.76915203 0.00525403 2.68053338 0.00796065 C4.08277012 0.00622988 4.08277012 0.00622988 5.51333487 0.00446415 C8.68735811 0.00178942 11.86133195 0.00632664 15.03535268 0.01075396 C17.31723046 0.01031843 19.59910819 0.00944387 21.88098565 0.00816479 C28.18380293 0.0059162 34.48660341 0.00994607 40.78941855 0.01494285 C46.87831597 0.01928793 52.96721347 0.01798368 59.05611196 0.01726101 C71.51746192 0.01594497 83.97880658 0.01929663 96.440155 0.02527842 C108.78430581 0.03118881 121.12845442 0.03504302 133.47260663 0.03613123 C134.62247817 0.03623434 134.62247817 0.03623434 135.79557945 0.03633953 C139.68841532 0.03667785 143.5812512 0.03697924 147.47408708 0.03726641 C175.07059586 0.03936866 202.66710175 0.04611113 230.2636089 0.05556902 C257.07871291 0.06474853 283.89381614 0.07183456 310.7089214 0.07607684 C311.94804349 0.07627412 311.94804349 0.07627412 313.21219835 0.0764754 C321.50779888 0.07779388 329.80339942 0.0790697 338.09899997 0.08031426 C354.99916079 0.0828507 371.89932157 0.08567195 388.79948232 0.08866534 C389.96512944 0.08887127 389.96512944 0.08887127 391.154325 0.08908137 C443.07657775 0.09828713 494.99882884 0.11415367 546.92107961 0.13100848 C546.92107961 0.79100848 546.92107961 1.45100848 546.92107961 2.13100848 C547.64295461 2.25475848 548.36482961 2.37850848 549.10857961 2.50600848 C551.87829855 3.12150157 554.318115 4.01545222 556.92107961 5.13100848 C556.92107961 5.79100848 556.92107961 6.45100848 556.92107961 7.13100848 C557.64295461 7.37850848 558.36482961 7.62600848 559.10857961 7.88100848 C562.23283303 9.26956556 564.43659872 10.78455431 566.92107961 13.13100848 C567.73357961 15.38100848 567.73357961 15.38100848 567.92107961 17.13100848 C568.58107961 17.13100848 569.24107961 17.13100848 569.92107961 17.13100848 C569.92107961 17.79100848 569.92107961 18.45100848 569.92107961 19.13100848 C570.58107961 19.13100848 571.24107961 19.13100848 571.92107961 19.13100848 C572.25107961 20.78100848 572.58107961 22.43100848 572.92107961 24.13100848 C573.58107961 24.13100848 574.24107961 24.13100848 574.92107961 24.13100848 C578.34965103 31.41672276 578.34965103 31.41672276 577.92107961 36.13100848 C578.58107961 36.13100848 579.24107961 36.13100848 579.92107961 36.13100848 C580.25107961 139.42100848 580.58107961 242.71100848 580.92107961 349.13100848 C581.58107961 349.46100848 582.24107961 349.79100848 582.92107961 350.13100848 C582.92107961 350.79100848 582.92107961 351.45100848 582.92107961 352.13100848 C583.66357961 352.21350848 584.40607961 352.29600848 585.17107961 352.38100848 C588.45631158 353.27698083 589.66706115 354.6438157 591.92107961 357.13100848 C592.58107961 357.46100848 593.24107961 357.79100848 593.92107961 358.13100848 C593.92107961 358.79100848 593.92107961 359.45100848 593.92107961 360.13100848 C595.57107961 360.46100848 597.22107961 360.79100848 598.92107961 361.13100848 C598.92107961 361.79100848 598.92107961 362.45100848 598.92107961 363.13100848 C599.65197804 363.38882098 600.38287648 363.64663348 601.13592336 363.91225848 C604.02262696 365.17544435 606.05537773 366.63777146 608.48357961 368.63100848 C611.20255478 370.85519614 613.71615956 372.67753 616.92107961 374.13100848 C616.92107961 374.79100848 616.92107961 375.45100848 616.92107961 376.13100848 C617.62232961 376.37850848 618.32357961 376.62600848 619.04607961 376.88100848 C622.31622508 378.30281086 625.0622016 380.00347136 627.92107961 382.13100848 C627.92107961 382.79100848 627.92107961 383.45100848 627.92107961 384.13100848 C628.62232961 384.37850848 629.32357961 384.62600848 630.04607961 384.88100848 C633.31622508 386.30281086 636.0622016 388.00347136 638.92107961 390.13100848 C638.92107961 390.79100848 638.92107961 391.45100848 638.92107961 392.13100848 C639.60170461 392.35788348 640.28232961 392.58475848 640.98357961 392.81850848 C644.11271756 394.21663394 646.56031338 395.94191748 649.27264211 398.00991473 C651.04168275 399.3223314 651.04168275 399.3223314 653.92107961 400.13100848 C654.92107961 401.13100848 655.92107961 402.13100848 656.92107961 403.13100848 C657.80795461 403.64663348 658.69482961 404.16225848 659.60857961 404.69350848 C660.37170461 405.16788348 661.13482961 405.64225848 661.92107961 406.13100848 C661.92107961 406.79100848 661.92107961 407.45100848 661.92107961 408.13100848 C662.62232961 408.37850848 663.32357961 408.62600848 664.04607961 408.88100848 C667.31622508 410.30281086 670.0622016 412.00347136 672.92107961 414.13100848 C672.92107961 414.79100848 672.92107961 415.45100848 672.92107961 416.13100848 C673.64295461 416.39913348 674.36482961 416.66725848 675.10857961 416.94350848 C682.35769932 420.00424791 682.35769932 420.00424791 683.92107961 423.13100848 C685.64533577 424.15278991 687.37190554 425.17230941 689.13201711 426.13100848 C690.77629566 427.0500812 692.35374184 428.08611663 693.92107961 429.13100848 C693.92107961 429.79100848 693.92107961 430.45100848 693.92107961 431.13100848 C694.68420461 431.23413348 695.44732961 431.33725848 696.23357961 431.44350848 C699.23141441 432.21039645 699.84817675 432.95754946 701.92107961 435.13100848 C703.01288904 435.99483217 704.12337355 436.83545657 705.24920461 437.65444598 C706.20246632 438.35053973 706.20246632 438.35053973 707.17498586 439.06069598 C707.83369679 439.5376491 708.49240773 440.01460223 709.17107961 440.50600848 C709.81432179 440.97522723 710.45756398 441.44444598 711.12029836 441.92788348 C711.76096242 442.3945241 712.40162648 442.86116473 713.06170461 443.34194598 C714.01399953 444.03755633 714.01399953 444.03755633 714.98553273 444.74721941 C716.29651935 445.68448886 717.62420708 446.59875278 718.96600148 447.49136004 C720.66683315 448.63466833 722.30090941 449.87600618 723.92107961 451.13100848 C723.92107961 452.12100848 723.92107961 453.11100848 723.92107961 454.13100848 C655.0947769 454.2338497 586.26846501 454.32924602 517.44210622 454.38506731 C516.42338904 454.38589566 515.40467185 454.386724 514.35508445 454.38757744 C492.21540076 454.40553506 470.07571625 454.42215613 447.93603053 454.43740045 C437.07867041 454.44488445 426.2213105 454.45266377 415.3639507 454.46059832 C414.28351522 454.46138287 413.20307973 454.46216743 412.08990378 454.46297576 C377.07241957 454.48854199 342.05499346 454.53360847 307.03754445 454.5887918 C271.0513511 454.64539873 235.0651899 454.68232378 199.07895278 454.69449842 C193.99567976 454.69622734 188.91240685 454.69818116 183.82913396 454.70027193 C182.82867693 454.70067647 181.82821991 454.70108101 180.797446 454.70149781 C164.69545442 454.708587 148.59356228 454.73641232 132.49161124 454.77200068 C116.3021104 454.8073397 100.11270811 454.82081247 83.92317005 454.81201674 C74.30564291 454.80745469 64.68847661 454.81960652 55.07101466 454.85579373 C48.64239351 454.87832878 42.21400805 454.87896562 35.7853705 454.86199936 C32.12490781 454.85295969 28.46512641 454.85324838 24.8047374 454.88030757 C-2.9404931 455.07351537 -2.9404931 455.07351537 -14.07892039 448.13100848 C-14.9740365 447.61212412 -15.8691526 447.09323976 -16.79139343 446.55863163 C-21.71923809 443.61785106 -25.90880757 439.9545527 -29.07892039 435.13100848 C-29.07892039 434.47100848 -29.07892039 433.81100848 -29.07892039 433.13100848 C-29.73892039 433.13100848 -30.39892039 433.13100848 -31.07892039 433.13100848 C-31.40892039 431.48100848 -31.73892039 429.83100848 -32.07892039 428.13100848 C-32.73892039 428.13100848 -33.39892039 428.13100848 -34.07892039 428.13100848 C-34.07892039 427.14100848 -34.07892039 426.15100848 -34.07892039 425.13100848 C-34.73892039 425.13100848 -35.39892039 425.13100848 -36.07892039 425.13100848 C-38.28762232 416.66314658 -38.36095373 408.33047485 -38.33288768 399.64541277 C-38.33519505 398.08473313 -38.33837342 396.52405458 -38.34234217 394.96337828 C-38.35066085 390.69545318 -38.34657824 386.42761797 -38.34036973 382.15969262 C-38.33583424 377.54885767 -38.34283444 372.93803789 -38.34832957 368.32720599 C-38.3572135 359.30274668 -38.35530602 350.27832068 -38.34950429 341.25386009 C-38.34498388 333.91817818 -38.34437654 326.58250559 -38.34655192 319.24682269 C-38.34685839 318.20197826 -38.34716486 317.15713384 -38.34748061 316.08062747 C-38.34812007 313.95791412 -38.3487685 311.83520077 -38.34942579 309.71248743 C-38.35512616 289.81711074 -38.3485758 269.9217525 -38.33782506 250.02637884 C-38.32888982 232.96261334 -38.33044194 215.89887505 -38.33966258 198.83511004 C-38.35037039 179.00995118 -38.35457686 159.18480847 -38.34843805 139.35964713 C-38.34780097 137.24482951 -38.34717223 135.13001189 -38.34655192 133.01519427 C-38.34624337 131.97471758 -38.34593482 130.9342409 -38.34561692 129.86223462 C-38.34389152 122.53705755 -38.34680176 115.21189074 -38.35151103 107.88671526 C-38.35712553 98.95736685 -38.35559142 90.02805359 -38.34494954 81.0987092 C-38.33970052 76.54458193 -38.337623 71.99051324 -38.34424785 67.43638644 C-38.35022531 63.26413437 -38.34690261 59.09199495 -38.33629274 54.91975304 C-38.33406633 53.4138286 -38.3351779 51.90789455 -38.34004432 50.40197632 C-38.36377685 42.44496927 -38.09865737 34.87440454 -36.07892039 27.13100848 C-35.41892039 27.13100848 -34.75892039 27.13100848 -34.07892039 27.13100848 C-34.07892039 26.14100848 -34.07892039 25.15100848 -34.07892039 24.13100848 C-33.41892039 24.13100848 -32.75892039 24.13100848 -32.07892039 24.13100848 C-31.74892039 22.48100848 -31.41892039 20.83100848 -31.07892039 19.13100848 C-30.41892039 19.13100848 -29.75892039 19.13100848 -29.07892039 19.13100848 C-28.83142039 18.57413348 -28.58392039 18.01725848 -28.32892039 17.44350848 C-25.76822037 12.70621342 -22.92032904 9.5517128 -18.07892039 7.13100848 C-17.41892039 7.13100848 -16.75892039 7.13100848 -16.07892039 7.13100848 C-15.74892039 6.14100848 -15.41892039 5.15100848 -15.07892039 4.13100848 C-13.26642039 3.21694598 -13.26642039 3.21694598 -11.07892039 2.50600848 C-3.56428616 0.01007639 -3.56428616 0.01007639 0 0 Z " fill="#002EFF" transform="translate(244.0789203941822,310.8689915239811)"/>
<path d="M0 0 C25.183125 -0.020625 50.36625 -0.04125 76.3125 -0.0625 C84.25223877 -0.071604 92.19197754 -0.08070801 100.37231445 -0.09008789 C110.09802246 -0.09460449 110.09802246 -0.09460449 114.65690613 -0.09544373 C117.82809657 -0.09637208 120.99927013 -0.10010644 124.17045593 -0.10557556 C128.22579582 -0.11247599 132.28111144 -0.11448353 136.33645666 -0.11307228 C137.81833004 -0.11336703 139.30020435 -0.11532532 140.78207266 -0.11921513 C162.78195897 -0.17424262 162.78195897 -0.17424262 173.375 3.4375 C174.04660156 3.65470703 174.71820313 3.87191406 175.41015625 4.09570312 C182.7494915 6.49648764 182.7494915 6.49648764 186 8 C186.33 8.66 186.66 9.32 187 10 C188.41834842 10.68687313 189.86091065 11.32398935 191.3125 11.9375 C198.34735428 15.323529 203.4957339 20.58137312 209 26 C209.94230469 26.8971875 210.88460937 27.794375 211.85546875 28.71875 C214 31 214 31 214 33 C214.66 33 215.32 33 216 33 C216.30292969 33.61746094 216.60585938 34.23492187 216.91796875 34.87109375 C217.33691406 35.71800781 217.75585938 36.56492187 218.1875 37.4375 C218.63996094 38.35273438 219.09242188 39.26796875 219.55859375 40.2109375 C220.86271305 42.73435533 222.27874622 45.13471679 223.75 47.5625 C226.30677363 52.05088003 226.75581033 55.87201689 227 61 C227.66 61 228.32 61 229 61 C230.40244148 66.93152309 230.18602125 72.85562085 230.18530273 78.91992188 C230.18749334 80.99369715 230.20569072 83.06694334 230.22460938 85.140625 C230.22654297 86.45546875 230.22847656 87.7703125 230.23046875 89.125 C230.23457764 90.32382812 230.23868652 91.52265625 230.24291992 92.7578125 C230.00185841 95.97519633 229.29907549 98.0802806 228 101 C227.67479212 102.42400903 227.38080481 103.85557109 227.12109375 105.29296875 C223.34892265 122.94877445 210.57408365 136.37510311 196.03857422 146.05639648 C191.4129987 149 191.4129987 149 188 149 C188 149.66 188 150.32 188 151 C190.97 151.99 190.97 151.99 194 153 C194 153.66 194 154.32 194 155 C194.721875 155.07863281 195.44375 155.15726563 196.1875 155.23828125 C201.54202887 156.68846615 205.13038188 161.19392241 209 165 C209.56847656 165.55558594 210.13695312 166.11117187 210.72265625 166.68359375 C214.00125843 170.21071971 214.71563162 173.26052703 215 178 C215.66 178 216.32 178 217 178 C217 179.32 217 180.64 217 182 C217.66 182 218.32 182 219 182 C222.83909028 191.46975601 222.1484584 202.29143723 222.2109375 212.33984375 C222.23899562 214.89258465 222.26766 217.44531895 222.296875 219.99804688 C222.33810509 223.97159713 222.37504982 227.94502252 222.40136719 231.91870117 C222.42913684 235.7884981 222.47498761 239.65775756 222.5234375 243.52734375 C222.5283168 245.28569801 222.5283168 245.28569801 222.53329468 247.07957458 C222.67655093 256.80606448 223.45886383 267.30454569 230 275 C230.9075 275.61875 231.815 276.2375 232.75 276.875 C235 279 235 279 235.21972656 280.95751953 C235.14648438 282.97167969 235.07324219 284.98583984 235 287 C226.42922402 287.04628427 217.85850003 287.08184919 209.28763008 287.10362434 C205.30808227 287.11407386 201.32861979 287.12825422 197.34912109 287.15087891 C193.51066114 287.17256585 189.67228341 287.18455982 185.83376694 287.18975449 C184.36729513 287.19345773 182.90082795 287.200689 181.43439102 287.21146011 C179.38470894 287.22592019 177.33536918 287.22798029 175.28564453 287.22705078 C173.533582 287.23371262 173.533582 287.23371262 171.74612427 287.24050903 C169 287 169 287 167 285 C166.4375 282.3125 166.4375 282.3125 166 279 C165.44077783 269.4117333 165.44077783 269.4117333 162 261 C160.8545869 253.38172687 160.8640922 245.67311066 160.90234375 237.98828125 C160.90446617 236.34692451 160.90446617 236.34692451 160.90663147 234.67240906 C160.91217469 231.21907678 160.92471621 227.76581228 160.9375 224.3125 C160.94252235 221.95377699 160.94708396 219.59505294 160.95117188 217.23632812 C160.96212544 211.49086277 160.97880587 205.74543623 161 200 C160.34 200 159.68 200 159 200 C158.67 196.7 158.34 193.4 158 190 C157.34 190 156.68 190 156 190 C155.9175 189.21625 155.835 188.4325 155.75 187.625 C155.29193046 184.9378646 155.29193046 184.9378646 153.375 183.9375 C152.59125 183.628125 151.8075 183.31875 151 183 C149.74190005 182.30615518 148.492305 181.596744 147.25 180.875 C146.1775 180.25625 145.105 179.6375 144 179 C144 178.34 144 177.68 144 177 C143.22914063 176.93941406 142.45828125 176.87882813 141.6640625 176.81640625 C140.66117188 176.73261719 139.65828125 176.64882813 138.625 176.5625 C137.12839844 176.44068359 137.12839844 176.44068359 135.6015625 176.31640625 C133 176 133 176 131 175 C128.72338355 174.87887902 126.44324083 174.82247855 124.16357422 174.79467773 C123.09269656 174.77962865 123.09269656 174.77962865 122.00018501 174.76427555 C119.68505238 174.73284764 117.36990266 174.7081018 115.0546875 174.68359375 C113.62702877 174.66519426 112.19937559 174.64635779 110.77172852 174.6270752 C105.47288489 174.55858134 100.17393452 174.49855815 94.875 174.4375 C83.03625 174.293125 71.1975 174.14875 59 174 C59 211.29 59 248.58 59 287 C39.53 287 20.06 287 0 287 C0 192.29 0 97.58 0 0 Z " fill="#FBFCFF" transform="translate(277,391)"/>
<path d="M0 0 C0.89754501 -0.01225616 1.79509003 -0.02451233 2.71983337 -0.03713989 C5.6413737 -0.06935009 8.56269069 -0.08796842 11.484375 -0.1015625 C12.46612701 -0.10712158 13.44787903 -0.11268066 14.4593811 -0.1184082 C28.68478945 -0.15936863 41.7025447 0.47126705 55.234375 5.2734375 C55.234375 5.9334375 55.234375 6.5934375 55.234375 7.2734375 C56.306875 7.3353125 57.379375 7.3971875 58.484375 7.4609375 C64.47229703 8.171734 69.78747364 10.81325372 75.234375 13.2734375 C75.234375 13.9334375 75.234375 14.5934375 75.234375 15.2734375 C75.78222656 15.38945312 76.33007812 15.50546875 76.89453125 15.625 C87.88518161 18.67082297 95.96995033 25.85608921 104.234375 33.2734375 C105.67123482 34.48253202 107.10863188 35.69098878 108.546875 36.8984375 C112.78802853 40.64222761 116.89791628 44.69468032 120.234375 49.2734375 C120.234375 50.2634375 120.234375 51.2534375 120.234375 52.2734375 C120.894375 52.2734375 121.554375 52.2734375 122.234375 52.2734375 C132.234375 64.46620858 132.234375 64.46620858 132.234375 71.2734375 C132.894375 71.2734375 133.554375 71.2734375 134.234375 71.2734375 C134.42773438 71.88832031 134.62109375 72.50320313 134.8203125 73.13671875 C135.08070313 73.94496094 135.34109375 74.75320313 135.609375 75.5859375 C135.99222656 76.78669922 135.99222656 76.78669922 136.3828125 78.01171875 C137.22269311 80.50068278 137.22269311 80.50068278 139.234375 83.2734375 C139.359375 86.4609375 139.359375 86.4609375 139.234375 89.2734375 C138.50025391 89.35384277 137.76613281 89.43424805 137.00976562 89.51708984 C129.87140691 90.30043196 122.73432692 91.09453365 115.59814453 91.89746094 C112.80957066 92.20914651 110.02031486 92.51251655 107.23046875 92.8125 C100.81780667 93.52699654 94.88125998 94.53814566 88.76171875 96.609375 C83.70255538 97.93867604 78.44131261 98.03675852 73.234375 98.2734375 C71.940201 95.71217686 70.64896716 93.14950392 69.359375 90.5859375 C68.99457031 89.86470703 68.62976563 89.14347656 68.25390625 88.40039062 C66.4164508 84.74218386 64.67298998 81.112268 63.234375 77.2734375 C62.574375 77.2734375 61.914375 77.2734375 61.234375 77.2734375 C59.7890625 75.734375 59.7890625 75.734375 58.109375 73.6484375 C51.99583703 66.50127043 44.83888966 61.96991722 36.234375 58.2734375 C35.3371875 57.87769531 34.44 57.48195313 33.515625 57.07421875 C20.72539303 52.27788176 5.27415942 52.62635018 -7.765625 56.2734375 C-11.265625 56.3984375 -11.265625 56.3984375 -13.765625 56.2734375 C-13.765625 56.9334375 -13.765625 57.5934375 -13.765625 58.2734375 C-14.29929687 58.469375 -14.83296875 58.6653125 -15.3828125 58.8671875 C-29.70212276 64.61473072 -42.34560415 77.15451448 -48.63476562 91.21679688 C-51.51589067 98.1171889 -53.93387638 104.80704287 -54.765625 112.2734375 C-55.425625 112.2734375 -56.085625 112.2734375 -56.765625 112.2734375 C-56.79094126 119.48168184 -56.80847762 126.68991475 -56.82055664 133.89819336 C-56.8255912 136.35132272 -56.83241924 138.80444907 -56.84106445 141.25756836 C-56.85316832 144.7797927 -56.85886203 148.30197744 -56.86328125 151.82421875 C-56.86844254 152.92429764 -56.87360382 154.02437653 -56.87892151 155.15779114 C-56.87903481 156.68903877 -56.87903481 156.68903877 -56.87915039 158.2512207 C-56.881371 159.15056839 -56.88359161 160.04991608 -56.88587952 160.97651672 C-56.85929356 163.43609048 -56.85929356 163.43609048 -55.765625 166.2734375 C-55.44894001 169.10632869 -55.16186349 171.93628873 -54.890625 174.7734375 C-54.00163211 187.63501673 -54.00163211 187.63501673 -47.765625 198.2734375 C-46.73460553 200.59323131 -45.73625983 202.92773665 -44.765625 205.2734375 C-44.20875 206.2015625 -43.651875 207.1296875 -43.078125 208.0859375 C-41.765625 210.2734375 -41.765625 210.2734375 -41.765625 212.2734375 C-41.105625 212.2734375 -40.445625 212.2734375 -39.765625 212.2734375 C-38.54941427 213.7549491 -37.39302068 215.28576844 -36.265625 216.8359375 C-27.80907477 227.64322552 -14.74323997 234.77296192 -1.20703125 236.80859375 C3.75184451 237.40397759 8.68231016 237.45734012 13.671875 237.4609375 C14.56197266 237.47318359 15.45207031 237.48542969 16.36914062 237.49804688 C25.59267814 237.51825916 32.82737514 236.05450039 40.671875 231.1484375 C47.02070718 227.2734375 47.02070718 227.2734375 49.234375 227.2734375 C49.234375 226.6134375 49.234375 225.9534375 49.234375 225.2734375 C50.38014096 224.22588005 51.5783106 223.23534033 52.796875 222.2734375 C65.13608056 211.74369141 70.47220811 196.54623414 74.234375 181.2734375 C88.65760751 181.60500606 102.84897032 183.03496745 117.15185547 184.81347656 C118.55564467 184.98778647 119.9594529 185.16194315 121.36328125 185.3359375 C122.03619202 185.41946472 122.70910278 185.50299194 123.40240479 185.58905029 C129.33697153 186.31271587 135.27340546 186.82390641 141.234375 187.2734375 C140.904375 191.2334375 140.574375 195.1934375 140.234375 199.2734375 C139.574375 199.2734375 138.914375 199.2734375 138.234375 199.2734375 C138.11707031 200.2840625 137.99976563 201.2946875 137.87890625 202.3359375 C136.43444471 211.16028439 133.05806852 219.75415055 128.234375 227.2734375 C127.72003906 228.11261719 127.20570313 228.95179688 126.67578125 229.81640625 C121.33846081 238.434574 115.35033717 246.15537424 108.546875 253.6484375 C107.85126465 254.41692017 107.85126465 254.41692017 107.14160156 255.20092773 C104.68949411 257.86002554 102.28934527 260.31665916 99.234375 262.2734375 C98.574375 262.2734375 97.914375 262.2734375 97.234375 262.2734375 C97.234375 262.9334375 97.234375 263.5934375 97.234375 264.2734375 C95.26444547 265.75704068 93.31669095 267.08795485 91.234375 268.3984375 C90.60861572 268.79514648 89.98285645 269.19185547 89.33813477 269.60058594 C66.45300158 283.82563843 41.96957408 291.73326931 14.921875 291.5859375 C14.22594238 291.58411469 13.53000977 291.58229187 12.81298828 291.58041382 C-5.78255886 291.49889633 -23.21779575 289.5524001 -40.765625 283.2734375 C-42.30668211 282.8130588 -43.84825369 282.35439398 -45.390625 281.8984375 C-53.92416673 279.02103904 -62.52634084 274.62325751 -69.765625 269.2734375 C-69.765625 268.6134375 -69.765625 267.9534375 -69.765625 267.2734375 C-70.425625 267.0878125 -71.085625 266.9021875 -71.765625 266.7109375 C-83.87581378 260.90813871 -95.77089943 246.4649984 -102.765625 235.2734375 C-102.765625 234.2834375 -102.765625 233.2934375 -102.765625 232.2734375 C-103.425625 232.2734375 -104.085625 232.2734375 -104.765625 232.2734375 C-105.70000058 230.40468634 -106.63336266 228.53542362 -107.5625 226.6640625 C-108.34789676 225.10346894 -109.14935606 223.55082706 -109.96875 222.0078125 C-119.34439489 204.08727607 -119.34439489 204.08727607 -118.765625 195.2734375 C-119.425625 195.2734375 -120.085625 195.2734375 -120.765625 195.2734375 C-128.87279335 170.69630101 -128.65241626 141.5871438 -124.765625 116.2734375 C-124.63140137 115.37818359 -124.49717773 114.48292969 -124.35888672 113.56054688 C-121.33672865 93.9215396 -121.33672865 93.9215396 -116.9140625 84.80859375 C-115.65103488 82.19923779 -115.65103488 82.19923779 -114.86328125 78.95703125 C-113.61114727 74.75503003 -111.88451784 71.13012716 -109.828125 67.2734375 C-109.24792603 66.18107788 -109.24792603 66.18107788 -108.65600586 65.06665039 C-105.71898408 59.69285921 -102.43709631 54.65614375 -98.828125 49.7109375 C-98.35576416 49.06189453 -97.88340332 48.41285156 -97.39672852 47.74414062 C-96.24174247 46.21058397 -95.01030336 44.73513671 -93.765625 43.2734375 C-93.105625 43.2734375 -92.445625 43.2734375 -91.765625 43.2734375 C-91.37890625 42.39945312 -91.37890625 42.39945312 -90.984375 41.5078125 C-82.34760448 25.67373322 -60.01692307 14.45773689 -43.765625 8.2734375 C-42.96640625 7.96792969 -42.1671875 7.66242188 -41.34375 7.34765625 C-31.83796916 3.96512475 -22.09397744 2.03756159 -12.03125 1.484375 C-8.07581628 1.11611048 -4.37726462 0.05403122 0 0 Z " fill="#FCFCFF" transform="translate(640.765625,395.7265625)"/>
<path d="M0 0 C19.52407708 -0.12032643 19.52407708 -0.12032643 27.90039062 -0.14648438 C33.59717276 -0.1643594 39.29380909 -0.18541642 44.99047852 -0.22631836 C49.58759844 -0.25911584 54.18456181 -0.27689567 58.78178978 -0.28463173 C60.52831674 -0.29013887 62.27483595 -0.30089215 64.02129555 -0.31719017 C73.44782568 -0.40159301 82.03038909 -0.32203345 91 3 C91.71613968 3.26073807 92.43227936 3.52147614 93.17012024 3.79011536 C97.81209329 5.62418657 97.81209329 5.62418657 99 8 C99.99 8.33 100.98 8.66 102 9 C106.16349615 13.97588565 108.20811591 19.86158626 110 26 C110.495 27.485 110.495 27.485 111 29 C111.09274214 30.59166512 111.13068425 32.18688667 111.1328125 33.78125 C111.13410156 34.70550781 111.13539063 35.62976563 111.13671875 36.58203125 C111.13285156 37.54496094 111.12898438 38.50789063 111.125 39.5 C111.12886719 40.46292969 111.13273437 41.42585938 111.13671875 42.41796875 C111.13542969 43.34222656 111.13414062 44.26648438 111.1328125 45.21875 C111.13168457 46.06373047 111.13055664 46.90871094 111.12939453 47.77929688 C111 50 111 50 110 53 C109.34 53 108.68 53 108 53 C108.03222656 53.556875 108.06445312 54.11375 108.09765625 54.6875 C108.03794916 58.61489986 107.7064655 61.13318045 105.17578125 64.23828125 C94.67703355 73.70319641 84.14886523 77.18553244 70.04516602 77.11352539 C69.28336533 77.11367142 68.52156464 77.11381744 67.73667908 77.1139679 C65.24239154 77.1132765 62.74818059 77.10552061 60.25390625 77.09765625 C58.51513205 77.09578932 56.77635732 77.09436672 55.0375824 77.09336853 C50.47887703 77.089565 45.92020392 77.07975334 41.36151123 77.06866455 C35.88232337 77.05659717 30.40312468 77.05203788 24.92392731 77.04621124 C16.61592915 77.03654031 8.30800168 77.01736864 0 77 C0 51.59 0 26.18 0 0 Z " fill="#0330FF" transform="translate(336,441)"/>
<path d="M0 0 C0.33 0 0.66 0 1 0 C1.02505615 0.89307861 1.0501123 1.78615723 1.07592773 2.70629883 C1.17110186 6.02185454 1.27033283 9.33723729 1.37231445 12.65258789 C1.41560793 14.08711003 1.45728699 15.52168184 1.49731445 16.95629883 C1.55515267 19.0191952 1.61880753 21.08184283 1.68359375 23.14453125 C1.72025146 24.38565674 1.75690918 25.62678223 1.79467773 26.90551758 C1.87144121 30.03553347 1.87144121 30.03553347 3 33 C3.22718496 35.56634861 3.41608184 38.11678107 3.5625 40.6875 C3.60568359 41.38939453 3.64886719 42.09128906 3.69335938 42.81445312 C3.7991736 44.54275206 3.90006581 46.2713511 4 48 C-1.8552529 39.21712066 -0.23340908 26.99999899 -0.125 16.875 C-0.11494877 15.23438047 -0.10582672 13.59375497 -0.09765625 11.953125 C-0.07581549 7.96860035 -0.0414043 3.98436741 0 0 Z " fill="#8EA2FF" transform="translate(582,529)"/>
<path d="M0 0 C0.72256485 0.0028299 1.4451297 0.00565979 2.18959045 0.00857544 C4.47162241 0.01966864 6.75324522 0.04475162 9.03515625 0.0703125 C10.59309324 0.08035639 12.15103646 0.08947976 13.70898438 0.09765625 C17.50536324 0.11957217 21.30144065 0.15402512 25.09765625 0.1953125 C25.09765625 0.5253125 25.09765625 0.8553125 25.09765625 1.1953125 C23.69688843 1.23289673 23.69688843 1.23289673 22.26782227 1.27124023 C18.81440436 1.36618178 15.36116665 1.46542508 11.90795898 1.56762695 C10.41126356 1.61103063 8.91451686 1.65270163 7.41772461 1.69262695 C5.27051313 1.75019866 3.12356104 1.81392966 0.9765625 1.87890625 C-0.96367798 1.93389282 -0.96367798 1.93389282 -2.94311523 1.98999023 C-5.78789383 1.8620403 -5.78789383 1.8620403 -6.90234375 3.1953125 C-9.57293226 3.33646411 -12.22666613 3.23778357 -14.90234375 3.1953125 C-14.90234375 2.8653125 -14.90234375 2.5353125 -14.90234375 2.1953125 C-9.83691582 0.53083419 -5.34595332 -0.08047765 0 0 Z " fill="#708AFF" transform="translate(637.90234375,394.8046875)"/>
<path d="M0 0 C0.66 0.33 1.32 0.66 2 1 C-6.27906977 10.58139535 -6.27906977 10.58139535 -9 13 C-9.66 13 -10.32 13 -11 13 C-11 13.66 -11 14.32 -11 15 C-11.66 14.67 -12.32 14.34 -13 14 C-12.67 13.34 -12.34 12.68 -12 12 C-11.34 12 -10.68 12 -10 12 C-9.75507812 11.42765625 -9.51015625 10.8553125 -9.2578125 10.265625 C-7.78889901 7.61975598 -6.04651756 5.85146861 -3.875 3.75 C-3.15054688 3.04359375 -2.42609375 2.3371875 -1.6796875 1.609375 C-1.12539063 1.07828125 -0.57109375 0.5471875 0 0 Z " fill="#C1CCFF" transform="translate(559,427)"/>
<path d="M0 0 C0.66 0.33 1.32 0.66 2 1 C-1.3744786 3.96954117 -4.69198411 4.88310699 -9 6 C-9.99 6.495 -9.99 6.495 -11 7 C-13.6723621 7.13415472 -16.32250488 7.04318541 -19 7 C-16.74596874 4.74596874 -15.91667936 4.61890476 -12.875 4.0625 C-9.6115549 3.40875655 -6.650336 2.55440844 -3.5625 1.3125 C-2.386875 0.879375 -1.21125 0.44625 0 0 Z " fill="#5C7AFF" transform="translate(706,677)"/>
<path d="M0 0 C1.19594292 3.99221233 0.68790338 6.14193513 -1 10 C-3.125 12.375 -3.125 12.375 -5 14 C-5 10.44842089 -4.00581762 8.51236245 -2.5 5.3125 C-2.0359375 4.31863281 -1.571875 3.32476562 -1.09375 2.30078125 C-0.55234375 1.16189453 -0.55234375 1.16189453 0 0 Z " fill="#3F5FFF" transform="translate(500,504)"/>
<path d="M0 0 C1.81361152 6.01355397 0.71114746 12.39696192 -2 18 C-2.33 18 -2.66 18 -3 18 C-3 15.36 -3 12.72 -3 10 C-2.34 10 -1.68 10 -1 10 C-1.0309375 8.3603125 -1.0309375 8.3603125 -1.0625 6.6875 C-1 3 -1 3 0 0 Z " fill="#6B85FF" transform="translate(587,498)"/>
<path d="M0 0 C0.99 0.33 1.98 0.66 3 1 C2.01 1.495 2.01 1.495 1 2 C1 2.66 1 3.32 1 4 C-0.53125 5.2890625 -0.53125 5.2890625 -2.5 6.625 C-3.1496875 7.07101562 -3.799375 7.51703125 -4.46875 7.9765625 C-4.9740625 8.31429688 -5.479375 8.65203125 -6 9 C-6 6 -6 6 -4.6875 4.39453125 C-4.130625 3.87246094 -3.57375 3.35039062 -3 2.8125 C-2.443125 2.28269531 -1.88625 1.75289063 -1.3125 1.20703125 C-0.6628125 0.60955078 -0.6628125 0.60955078 0 0 Z " fill="#274BFF" transform="translate(611,462)"/>
<path d="M0 0 C-1.36983503 3.16115776 -1.9890638 3.9927092 -5 6 C-7.6875 6.125 -7.6875 6.125 -10 6 C-2.6 0 -2.6 0 0 0 Z " fill="#385AFF" transform="translate(734,663)"/>
<path d="M0 0 C-1 3 -1 3 -3 4 C-3 4.99 -3 5.98 -3 7 C-5.475 6.01 -5.475 6.01 -8 5 C-8 4.34 -8 3.68 -8 3 C-2.25 0 -2.25 0 0 0 Z " fill="#2045FF" transform="translate(473,537)"/>
<path d="M0 0 C-4.33664919 3.11696661 -7.80408388 3.55966813 -13 4 C-10.59615787 0.69471707 -7.61485854 0.1623116 -3.83984375 -0.765625 C-2 -1 -2 -1 0 0 Z " fill="#92A5FF" transform="translate(608,402)"/>
<path d="M0 0 C0 0.33 0 0.66 0 1 C-2.05078125 1.22786458 -4.1015625 1.45572917 -6.15234375 1.68359375 C-8.01140229 1.81886614 -8.01140229 1.81886614 -9 3 C-11.67058851 3.14115161 -14.32432238 3.04247107 -17 3 C-17 2.67 -17 2.34 -17 2 C-11.21642935 -0.01167675 -6.09781001 -0.22084624 0 0 Z " fill="#5574FF" transform="translate(640,395)"/>
<path d="M0 0 C0.33 0 0.66 0 1 0 C3.10428384 5.12919186 3.21755666 9.5610835 3 15 C2.67 15 2.34 15 2 15 C0.2520497 9.75614911 -0.19392201 5.52677733 0 0 Z " fill="#8B9FFF" transform="translate(495,573)"/>
<path d="M0 0 C4.71403788 0.47939368 8.66579301 0.96834048 13 3 C8.99068358 4.60372657 5.94176618 3.38691773 2 2 C1.34 1.34 0.68 0.68 0 0 Z " fill="#9EB0FF" transform="translate(445,394)"/>
<path d="M0 0 C0.66 0.33 1.32 0.66 2 1 C-0.88341534 5.21422242 -3.04303419 6.76075855 -8 8 C-7.34 7.01 -6.68 6.02 -6 5 C-5.34 5 -4.68 5 -4 5 C-4 4.34 -4 3.68 -4 3 C-2 1.375 -2 1.375 0 0 Z " fill="#4667FF" transform="translate(742,655)"/>
<path d="M0 0 C0.66 0 1.32 0 2 0 C3.3271261 3.9813783 3.06915913 7.85045227 3 12 C2.67 12 2.34 12 2 12 C0.70756464 7.8803623 -0.26252625 4.33168317 0 0 Z " fill="#3A5DFF" transform="translate(514,564)"/>
<path d="M0 0 C0.33 0 0.66 0 1 0 C1.32613618 4.67461851 0.70582788 7.16674383 -2 11 C-3 9 -3 9 -2.44140625 6.8359375 C-2.15136719 6.02382813 -1.86132812 5.21171875 -1.5625 4.375 C-1.27503906 3.55773437 -0.98757813 2.74046875 -0.69140625 1.8984375 C-0.46324219 1.27195312 -0.23507812 0.64546875 0 0 Z " fill="#8FA3FF" transform="translate(713,585)"/>
</svg>
